# xmcd CD database file
#
# Track frame offsets:
#	150
#	14988
#	35496
#	45698
#	63767
#	82001
#	97410
#	117950
#	131734
#	149240
#
# Disc length: 2188 seconds
#
# Revision: 0
# Processed by: cddbd v1.5.2PL0 Copyright (c) Steve Scherf et al.
# Submitted via: jetAudio 7
#
DISCID=9d088a0a
DTITLE=新民樂系列  - 鄕운
DYEAR=1900
DGENRE=장르 없음
TTITLE0=Happiness in Peasant Family
TTITLE1=Long for His Return
TTITLE2=Fallen Flowers
TTITLE3=Glimpses of Rural Area
TTITLE4=Blooming Flowers and Imperfect Moon
TTITLE5=Homesickness
TTITLE6=A Happy Farm
TTITLE7=Home Louer’s Heart
TTITLE8=Celebrate a Bumper Haruest
TTITLE9=Greet Spring
EXTD=
EXTT0=
EXTT1=
EXTT2=
EXTT3=
EXTT4=
EXTT5=
EXTT6=
EXTT7=
EXTT8=
EXTT9=
PLAYORDER=
